<?xml version="1.0" encoding="UTF-8"?>
<!DOCTYPE svg PUBLIC "-//W3C//DTD SVG 1.1//EN" "http://www.w3.org/Graphics/SVG/1.1/DTD/svg11.dtd">
<!-- Creator: CorelDRAW -->
<svg xmlns="http://www.w3.org/2000/svg" xml:space="preserve" width="250.437mm" height="40.4984mm" version="1.1" shape-rendering="geometricPrecision" text-rendering="geometricPrecision" image-rendering="optimizeQuality" fill-rule="evenodd" clip-rule="evenodd"
viewBox="0 0 25017.11 4045.54"
 xmlns:xlink="http://www.w3.org/1999/xlink"
 xmlns:xodm="http://www.corel.com/coreldraw/odm/2003">
 <g id="Layer_x0020_1">
  <metadata id="CorelCorpID_0Corel-Layer"/>
  <path fill="whitesmoke" fill-rule="nonzero" d="M24.79 3206.68l0 -2140.55 793.41 0 0 2140.55 -793.41 0zm396.7 -2359.56c-115.7,0 -214.88,-42.01 -297.52,-126.04 -82.64,-84.02 -123.97,-182.51 -123.97,-295.46 0,-115.71 41.33,-215.57 123.97,-299.59 82.64,-84.03 181.83,-126.04 297.52,-126.04 115.71,0 214.88,42.01 297.53,126.04 82.64,84.02 123.97,183.88 123.97,299.59 0,112.95 -41.33,211.44 -123.97,295.46 -82.65,84.03 -181.83,126.04 -297.53,126.04z"/>
  <path id="_1" fill="whitesmoke" fill-rule="nonzero" d="M1169.45 3206.68l0 -1231.43c0,-184.58 46.83,-349.19 140.5,-493.82 93.66,-144.64 224.52,-258.28 392.57,-340.92 168.04,-82.64 363.64,-123.97 586.79,-123.97 223.14,0 415.99,41.33 578.53,123.97 162.54,82.64 287.19,196.28 373.97,340.92 86.79,144.63 130.17,309.23 130.17,493.82l0 1231.43 -793.41 0 0 -1181.84c0,-52.34 -12.4,-101.24 -37.19,-146.7 -24.79,-45.45 -59.92,-82.64 -105.38,-111.57 -45.45,-28.92 -99.86,-43.38 -163.23,-43.38 -63.36,0 -119.14,14.46 -167.35,43.38 -48.22,28.93 -84.72,66.12 -109.51,111.57 -24.79,45.46 -37.19,94.36 -37.19,146.7l0 1181.84 -789.27 0z"/>
  <path id="_2" fill="whitesmoke" fill-rule="nonzero" d="M3723.22 3206.68l0 -561.99 1000.03 0c22.04,0 39.94,-4.82 53.71,-14.46 13.78,-9.64 24.79,-22.04 33.06,-37.19 8.26,-15.15 12.4,-31 12.4,-47.53 0,-16.52 -4.14,-32.37 -12.4,-47.52 -8.27,-15.15 -19.29,-26.86 -33.06,-35.12 -13.78,-8.26 -31.68,-12.4 -53.71,-12.4l-322.33 0c-140.5,0 -268.6,-24.1 -384.3,-72.31 -115.71,-48.21 -207.31,-123.97 -274.81,-227.28 -67.49,-103.31 -101.24,-236.23 -101.24,-398.78 0,-126.72 31,-241.73 92.98,-345.04 61.98,-103.31 146.69,-185.95 254.14,-247.94 107.44,-61.99 225.9,-92.98 355.38,-92.98l1086.8 0 0 561.99 -900.84 0c-27.55,0 -50.28,9.65 -68.19,28.93 -17.9,19.28 -26.86,41.33 -26.86,66.12 0,24.79 8.96,46.83 26.86,66.12 17.91,19.28 40.64,28.92 68.19,28.92l297.52 0c159.79,0 298.22,24.1 415.3,72.31 117.09,48.22 207.31,123.29 270.67,225.22 63.36,101.92 95.04,234.16 95.04,396.7 0,126.73 -32.37,242.43 -97.11,347.12 -64.74,104.68 -150.83,188.71 -258.27,252.07 -107.45,63.36 -228.66,95.04 -363.65,95.04l-1165.31 0z"/>
  <path id="_3" fill="whitesmoke" fill-rule="nonzero" d="M6686.11 3206.68c-206.62,0 -369.85,-59.23 -489.68,-177.69 -119.84,-118.45 -179.76,-279.62 -179.76,-483.49l0 -1975.25 793.41 0 0 1900.87c0,27.55 9.64,50.28 28.93,68.19 19.28,17.91 42.69,26.86 70.25,26.86l466.95 0 0 640.51 -690.1 0zm-991.77 -1537.23l0 -603.32 1681.86 0 0 603.32 -1681.86 0z"/>
  <path id="_4" fill="whitesmoke" fill-rule="nonzero" d="M7682 3206.68l0 -1475.24c0,-203.86 59.23,-365.02 177.68,-483.49 118.46,-118.45 283.76,-177.68 495.88,-177.68l685.97 0 0 599.18 -409.11 0c-46.83,0 -84.71,14.46 -113.64,43.39 -28.93,28.92 -43.38,66.8 -43.38,113.64l0 1380.19 -793.41 0z"/>
  <path id="_5" fill="whitesmoke" fill-rule="nonzero" d="M10396.93 3260.41c-223.14,0 -418.75,-42.02 -586.79,-126.04 -168.05,-84.03 -298.91,-198.36 -392.57,-342.99 -93.67,-144.64 -140.5,-309.23 -140.5,-493.82l0 -1231.43 789.27 0 0 1181.84c0,49.59 12.4,97.8 37.19,144.64 24.79,46.83 61.29,84.71 109.51,113.64 48.21,28.92 103.99,43.38 167.35,43.38 63.36,0 117.77,-14.46 163.23,-43.38 45.46,-28.93 80.58,-66.81 105.38,-113.64 24.79,-46.84 37.19,-95.05 37.19,-144.64l0 -1181.84 793.41 0 0 1231.43c0,184.58 -43.38,349.18 -130.17,493.82 -86.78,144.63 -211.44,258.95 -373.97,342.99 -162.54,84.02 -355.38,126.04 -578.53,126.04z"/>
  <path id="_6" fill="whitesmoke" fill-rule="nonzero" d="M11830.85 3206.68l0 -1247.96c0,-192.85 42.7,-359.51 128.1,-500.01 85.4,-140.5 204.54,-249.32 357.44,-326.45 152.9,-77.14 332.66,-115.71 539.28,-115.71 107.44,0 206.61,10.33 297.52,30.99 90.91,20.67 172.18,48.22 243.81,82.65 71.62,34.43 132.23,73.69 181.82,117.76l12.4 0c52.34,-44.07 113.64,-83.33 183.89,-117.76 70.25,-34.43 150.83,-61.98 241.73,-82.65 90.91,-20.66 190.09,-30.99 297.53,-30.99 209.37,0 391.19,38.57 545.46,115.71 154.28,77.14 274.12,185.95 359.52,326.45 85.4,140.5 128.1,307.16 128.1,500.01l0 1247.96 -797.54 0 0 -1194.24c0,-52.34 -11.02,-99.86 -33.05,-142.57 -22.05,-42.7 -53.72,-77.83 -95.05,-105.38 -41.32,-27.54 -92.28,-41.32 -152.9,-41.32 -60.61,0 -112.26,13.78 -154.96,41.32 -42.7,27.55 -75.07,62.67 -97.12,105.38 -22.04,42.7 -33.05,90.22 -33.05,142.57l0 1194.24 -789.27 0 0 -1194.24c0,-52.34 -11.71,-99.86 -35.13,-142.57 -23.42,-42.7 -57.16,-77.83 -101.24,-105.38 -44.07,-27.54 -96.42,-41.32 -157.02,-41.32 -57.85,0 -108.13,13.78 -150.83,41.32 -42.7,27.55 -75.07,62.67 -97.11,105.38 -22.05,42.7 -33.06,90.22 -33.06,142.57l0 1194.24 -789.27 0z"/>
  <path id="_7" fill="whitesmoke" fill-rule="nonzero" d="M16897.09 3206.68c-239.68,0 -453.18,-41.33 -640.51,-123.97 -187.34,-82.65 -335.41,-203.17 -444.23,-361.58 -108.81,-158.41 -163.23,-351.95 -163.23,-580.59 0,-250.69 53.72,-458.69 161.16,-623.99 107.45,-165.29 247.25,-289.95 419.43,-373.97 172.18,-84.02 353.31,-126.04 543.4,-126.04 195.59,0 371.22,40.64 526.87,121.9 155.64,81.27 279.62,197.66 371.9,349.18 92.29,151.52 138.43,333.35 138.43,545.47 0,52.34 -2.75,112.26 -8.26,179.76 -5.51,67.5 -13.78,124.66 -24.79,171.49l-1314.08 0c11.02,46.84 31.69,86.09 61.98,117.77 30.31,31.68 71.63,54.41 123.97,68.19 52.34,13.77 111.58,20.66 177.69,20.66l764.49 0 0 615.72 -694.23 0zm-471.09 -1260.36l652.91 0c0,-33.05 -4.13,-64.74 -12.4,-95.04 -8.26,-30.31 -21.35,-58.55 -39.26,-84.72 -17.9,-26.17 -39.25,-49.59 -64.04,-70.25 -24.8,-20.66 -54.41,-36.5 -88.85,-47.52 -34.44,-11.02 -72.32,-16.53 -113.64,-16.53 -52.34,0 -98.5,8.26 -138.43,24.79 -39.95,16.53 -73.7,38.57 -101.24,66.12 -27.55,27.55 -48.9,60.61 -64.05,99.17 -15.15,38.57 -25.48,79.9 -31,123.97z"/>
  <path id="_8" fill="whitesmoke" fill-rule="nonzero" d="M18988.04 3206.68c-206.62,0 -369.85,-59.23 -489.68,-177.69 -119.84,-118.45 -179.76,-279.62 -179.76,-483.49l0 -1975.25 793.41 0 0 1900.87c0,27.55 9.64,50.28 28.93,68.19 19.28,17.91 42.69,26.86 70.25,26.86l466.95 0 0 640.51 -690.1 0zm-991.77 -1537.23l0 -603.32 1681.86 0 0 603.32 -1681.86 0z"/>
  <path id="_9" fill="whitesmoke" fill-rule="nonzero" d="M19983.94 3206.68l0 -1475.24c0,-203.86 59.23,-365.02 177.68,-483.49 118.46,-118.45 283.76,-177.68 495.88,-177.68l685.97 0 0 599.18 -409.11 0c-46.83,0 -84.71,14.46 -113.64,43.39 -28.93,28.92 -43.38,66.8 -43.38,113.64l0 1380.19 -793.41 0z"/>
  <path id="_10" fill="whitesmoke" fill-rule="nonzero" d="M21579.01 3206.68l0 -2140.55 793.41 0 0 2140.55 -793.41 0zm396.7 -2359.56c-115.7,0 -214.88,-42.01 -297.52,-126.04 -82.64,-84.02 -123.97,-182.51 -123.97,-295.46 0,-115.71 41.33,-215.57 123.97,-299.59 82.64,-84.03 181.83,-126.04 297.52,-126.04 115.71,0 214.88,42.01 297.53,126.04 82.64,84.02 123.97,183.88 123.97,299.59 0,112.95 -41.33,211.44 -123.97,295.46 -82.65,84.03 -181.83,126.04 -297.53,126.04z"/>
  <path id="_11" fill="whitesmoke" fill-rule="nonzero" d="M23450.95 4045.54l0 -958.69 793.41 0 0 958.69 -793.41 0zm396.71 -789.27c-214.88,0 -411.17,-46.83 -588.86,-140.5 -177.68,-93.66 -319.56,-225.21 -425.63,-394.63 -106.06,-169.43 -159.09,-364.34 -159.09,-584.73 0,-220.4 53.03,-414.61 159.09,-582.66 106.07,-168.04 248.63,-299.59 427.7,-394.63 179.07,-95.05 376.04,-142.57 590.92,-142.57 214.88,0 410.48,47.52 586.8,142.57 176.31,95.04 316.81,226.59 421.49,394.63 104.69,168.05 157.03,362.27 157.03,582.66 0,220.39 -52.34,415.3 -157.03,584.73 -104.68,169.42 -245.87,300.97 -423.56,394.63 -177.69,93.67 -373.97,140.5 -588.85,140.5zm0 -710.76c74.38,0 140.5,-17.9 198.35,-53.71 57.85,-35.81 102.62,-84.72 134.3,-146.7 31.69,-61.98 47.53,-132.92 47.53,-212.81 0,-79.89 -15.84,-150.14 -47.53,-210.75 -31.68,-60.61 -75.76,-108.81 -132.23,-144.64 -56.48,-35.81 -121.91,-53.71 -196.29,-53.71 -77.14,0 -144.63,17.21 -202.48,51.66 -57.85,34.43 -103.3,82.64 -136.37,144.63 -33.05,61.98 -49.59,132.93 -49.59,212.81 0,79.9 15.84,150.83 47.52,212.81 31.69,61.98 76.45,110.89 134.31,146.7 57.85,35.81 125.35,53.71 202.48,53.71z"/>
  <path fill="#00A0E3" fill-rule="nonzero" d="M421.49 847.12c-115.7,0 -214.88,-42.01 -297.52,-126.04 -82.64,-84.02 -123.97,-182.51 -123.97,-295.46 0,-115.71 41.33,-215.57 123.97,-299.59 82.64,-84.03 181.83,-126.04 297.52,-126.04 115.71,0 214.88,42.01 297.53,126.04 82.64,84.02 123.97,183.88 123.97,299.59 0,112.95 -41.33,211.44 -123.97,295.46 -82.65,84.03 -181.83,126.04 -297.53,126.04zm21554.22 0c-115.7,0 -214.88,-42.01 -297.52,-126.04 -82.64,-84.02 -123.97,-182.51 -123.97,-295.46 0,-115.71 41.33,-215.57 123.97,-299.59 82.64,-84.03 181.83,-126.04 297.52,-126.04 115.71,0 214.88,42.01 297.53,126.04 82.64,84.02 123.97,183.88 123.97,299.59 0,112.95 -41.33,211.44 -123.97,295.46 -82.65,84.03 -181.83,126.04 -297.53,126.04z"/>
 </g>
</svg>
